<mxfile host="app.diagrams.net" agent="Mozilla/5.0 (Windows NT 10.0; Win64; x64) AppleWebKit/537.36 (KHTML, like Gecko) Chrome/129.0.0.0 Safari/537.36 Edg/129.0.0.0" version="24.7.15">
  <diagram name="Page-1" id="dwDQlOASEFGfQ0bVqq6l">
    <mxGraphModel dx="5550" dy="2835" grid="1" gridSize="10" guides="1" tooltips="1" connect="1" arrows="1" fold="1" page="1" pageScale="1" pageWidth="3000" pageHeight="2000" math="0" shadow="0">
      <root>
        <mxCell id="0" />
        <mxCell id="1" parent="0" />
        <mxCell id="z1Rl4krFJPg_lUYL_49s-413" value="" style="rounded=1;whiteSpace=wrap;html=1;fillColor=#e1d5e7;strokeColor=#9673a6;" vertex="1" parent="1">
          <mxGeometry x="2839" y="1450" width="950" height="220" as="geometry" />
        </mxCell>
        <mxCell id="z1Rl4krFJPg_lUYL_49s-414" value="" style="triangle;whiteSpace=wrap;html=1;rotation=90;fillColor=#9A00E7;strokeColor=#9673a6;" vertex="1" parent="1">
          <mxGeometry x="2053" y="725" width="1490" height="620" as="geometry" />
        </mxCell>
        <mxCell id="z1Rl4krFJPg_lUYL_49s-415" value="&lt;div style=&quot;&quot;&gt;&lt;br&gt;&lt;/div&gt;" style="rounded=1;whiteSpace=wrap;html=1;fillColor=#FF66FF;" vertex="1" parent="1">
          <mxGeometry x="1459" y="170" width="651" height="475" as="geometry" />
        </mxCell>
        <mxCell id="z1Rl4krFJPg_lUYL_49s-416" value="" style="rounded=0;whiteSpace=wrap;html=1;fillColor=#9999FF;" vertex="1" parent="1">
          <mxGeometry x="10" y="640" width="2270" height="1369" as="geometry" />
        </mxCell>
        <mxCell id="z1Rl4krFJPg_lUYL_49s-417" style="edgeStyle=orthogonalEdgeStyle;rounded=0;orthogonalLoop=1;jettySize=auto;html=1;exitX=1;exitY=0.5;exitDx=0;exitDy=0;entryX=0;entryY=0.25;entryDx=0;entryDy=0;" edge="1" parent="1" source="z1Rl4krFJPg_lUYL_49s-420" target="z1Rl4krFJPg_lUYL_49s-460">
          <mxGeometry relative="1" as="geometry" />
        </mxCell>
        <mxCell id="z1Rl4krFJPg_lUYL_49s-418" style="edgeStyle=orthogonalEdgeStyle;rounded=0;orthogonalLoop=1;jettySize=auto;html=1;exitX=0.25;exitY=1;exitDx=0;exitDy=0;" edge="1" parent="1" source="z1Rl4krFJPg_lUYL_49s-420" target="z1Rl4krFJPg_lUYL_49s-440">
          <mxGeometry relative="1" as="geometry">
            <mxPoint x="547.5" y="640" as="targetPoint" />
          </mxGeometry>
        </mxCell>
        <mxCell id="z1Rl4krFJPg_lUYL_49s-419" style="edgeStyle=orthogonalEdgeStyle;rounded=0;orthogonalLoop=1;jettySize=auto;html=1;exitX=0.5;exitY=1;exitDx=0;exitDy=0;entryX=0;entryY=0.5;entryDx=0;entryDy=0;" edge="1" parent="1" source="z1Rl4krFJPg_lUYL_49s-420" target="z1Rl4krFJPg_lUYL_49s-461">
          <mxGeometry relative="1" as="geometry" />
        </mxCell>
        <mxCell id="z1Rl4krFJPg_lUYL_49s-420" value="M0_D01" style="rounded=0;whiteSpace=wrap;html=1;shadow=0;" vertex="1" parent="1">
          <mxGeometry x="447" y="520" width="401" height="80" as="geometry" />
        </mxCell>
        <mxCell id="z1Rl4krFJPg_lUYL_49s-421" style="edgeStyle=orthogonalEdgeStyle;rounded=0;orthogonalLoop=1;jettySize=auto;html=1;entryX=0;entryY=0.5;entryDx=0;entryDy=0;" edge="1" parent="1" source="z1Rl4krFJPg_lUYL_49s-461" target="z1Rl4krFJPg_lUYL_49s-435">
          <mxGeometry relative="1" as="geometry" />
        </mxCell>
        <mxCell id="z1Rl4krFJPg_lUYL_49s-422" style="edgeStyle=orthogonalEdgeStyle;rounded=0;orthogonalLoop=1;jettySize=auto;html=1;exitX=1;exitY=0.5;exitDx=0;exitDy=0;entryX=0.5;entryY=0;entryDx=0;entryDy=0;" edge="1" parent="1" source="z1Rl4krFJPg_lUYL_49s-423" target="z1Rl4krFJPg_lUYL_49s-424">
          <mxGeometry relative="1" as="geometry" />
        </mxCell>
        <mxCell id="z1Rl4krFJPg_lUYL_49s-423" value="gate_HI_M0" style="whiteSpace=wrap;html=1;aspect=fixed;" vertex="1" parent="1">
          <mxGeometry x="48" y="80" width="80" height="80" as="geometry" />
        </mxCell>
        <mxCell id="z1Rl4krFJPg_lUYL_49s-424" value="M0_WC01" style="rounded=0;whiteSpace=wrap;html=1;" vertex="1" parent="1">
          <mxGeometry x="138" y="170" width="80" height="240" as="geometry" />
        </mxCell>
        <mxCell id="z1Rl4krFJPg_lUYL_49s-425" style="edgeStyle=orthogonalEdgeStyle;rounded=0;orthogonalLoop=1;jettySize=auto;html=1;exitX=1;exitY=0.75;exitDx=0;exitDy=0;entryX=0;entryY=0.5;entryDx=0;entryDy=0;" edge="1" parent="1" source="z1Rl4krFJPg_lUYL_49s-426" target="z1Rl4krFJPg_lUYL_49s-420">
          <mxGeometry relative="1" as="geometry" />
        </mxCell>
        <mxCell id="z1Rl4krFJPg_lUYL_49s-426" value="&lt;div&gt;&lt;br&gt;&lt;/div&gt;&lt;div&gt;&lt;br&gt;&lt;/div&gt;&lt;div&gt;&lt;br&gt;&lt;/div&gt;&lt;div&gt;&lt;br&gt;&lt;/div&gt;&lt;div&gt;&lt;br&gt;&lt;/div&gt;&lt;div&gt;&lt;span style=&quot;background-color: initial;&quot;&gt;M0_WD01&lt;/span&gt;&lt;br&gt;&lt;/div&gt;" style="rounded=0;whiteSpace=wrap;html=1;" vertex="1" parent="1">
          <mxGeometry x="128" y="440" width="240" height="160" as="geometry" />
        </mxCell>
        <mxCell id="z1Rl4krFJPg_lUYL_49s-427" value="air" style="rounded=1;whiteSpace=wrap;html=1;fillColor=#FF6666;" vertex="1" parent="1">
          <mxGeometry x="207" y="420" width="240" height="100" as="geometry" />
        </mxCell>
        <mxCell id="z1Rl4krFJPg_lUYL_49s-428" value="wall" style="rounded=1;whiteSpace=wrap;html=1;fillColor=#99FF99;" vertex="1" parent="1">
          <mxGeometry x="18" y="150" width="120" height="450" as="geometry" />
        </mxCell>
        <mxCell id="z1Rl4krFJPg_lUYL_49s-429" style="edgeStyle=orthogonalEdgeStyle;rounded=0;orthogonalLoop=1;jettySize=auto;html=1;entryX=0;entryY=0.5;entryDx=0;entryDy=0;exitX=1;exitY=0.25;exitDx=0;exitDy=0;" edge="1" parent="1" source="z1Rl4krFJPg_lUYL_49s-460" target="z1Rl4krFJPg_lUYL_49s-444">
          <mxGeometry relative="1" as="geometry">
            <mxPoint x="1058" y="560" as="targetPoint" />
          </mxGeometry>
        </mxCell>
        <mxCell id="z1Rl4krFJPg_lUYL_49s-430" style="edgeStyle=orthogonalEdgeStyle;rounded=0;orthogonalLoop=1;jettySize=auto;html=1;entryX=0.5;entryY=0;entryDx=0;entryDy=0;" edge="1" parent="1" source="z1Rl4krFJPg_lUYL_49s-460" target="z1Rl4krFJPg_lUYL_49s-438">
          <mxGeometry relative="1" as="geometry" />
        </mxCell>
        <mxCell id="z1Rl4krFJPg_lUYL_49s-431" style="edgeStyle=orthogonalEdgeStyle;rounded=0;orthogonalLoop=1;jettySize=auto;html=1;entryX=0;entryY=0.5;entryDx=0;entryDy=0;" edge="1" parent="1" target="z1Rl4krFJPg_lUYL_49s-444">
          <mxGeometry relative="1" as="geometry">
            <mxPoint x="1218" y="560.0000000000002" as="sourcePoint" />
          </mxGeometry>
        </mxCell>
        <mxCell id="z1Rl4krFJPg_lUYL_49s-432" style="edgeStyle=orthogonalEdgeStyle;rounded=0;orthogonalLoop=1;jettySize=auto;html=1;entryX=0;entryY=0.5;entryDx=0;entryDy=0;" edge="1" parent="1" source="z1Rl4krFJPg_lUYL_49s-435" target="z1Rl4krFJPg_lUYL_49s-438">
          <mxGeometry relative="1" as="geometry" />
        </mxCell>
        <mxCell id="z1Rl4krFJPg_lUYL_49s-433" value="M0_RD01" style="rounded=0;whiteSpace=wrap;html=1;" vertex="1" parent="1">
          <mxGeometry x="888" y="640" width="400" height="80" as="geometry" />
        </mxCell>
        <mxCell id="z1Rl4krFJPg_lUYL_49s-434" style="edgeStyle=orthogonalEdgeStyle;rounded=0;orthogonalLoop=1;jettySize=auto;html=1;exitX=0.75;exitY=1;exitDx=0;exitDy=0;entryX=0.25;entryY=0;entryDx=0;entryDy=0;" edge="1" parent="1" source="z1Rl4krFJPg_lUYL_49s-435" target="z1Rl4krFJPg_lUYL_49s-559">
          <mxGeometry relative="1" as="geometry" />
        </mxCell>
        <mxCell id="z1Rl4krFJPg_lUYL_49s-435" value="M0_IB02&lt;div&gt;(My concept room &quot;whatthefork&quot; :D)&lt;/div&gt;" style="rounded=0;whiteSpace=wrap;html=1;" vertex="1" parent="1">
          <mxGeometry x="758" y="760" width="160" height="80" as="geometry" />
        </mxCell>
        <mxCell id="z1Rl4krFJPg_lUYL_49s-436" style="edgeStyle=orthogonalEdgeStyle;rounded=0;orthogonalLoop=1;jettySize=auto;html=1;exitX=1;exitY=0.25;exitDx=0;exitDy=0;entryX=0.5;entryY=1;entryDx=0;entryDy=0;" edge="1" parent="1" source="z1Rl4krFJPg_lUYL_49s-438" target="z1Rl4krFJPg_lUYL_49s-433">
          <mxGeometry relative="1" as="geometry" />
        </mxCell>
        <mxCell id="z1Rl4krFJPg_lUYL_49s-437" style="edgeStyle=orthogonalEdgeStyle;rounded=0;orthogonalLoop=1;jettySize=auto;html=1;exitX=1;exitY=0.5;exitDx=0;exitDy=0;entryX=0;entryY=0.5;entryDx=0;entryDy=0;" edge="1" parent="1" target="z1Rl4krFJPg_lUYL_49s-450">
          <mxGeometry relative="1" as="geometry">
            <mxPoint x="1168" y="800" as="sourcePoint" />
          </mxGeometry>
        </mxCell>
        <mxCell id="z1Rl4krFJPg_lUYL_49s-438" value="M0_IA02" style="whiteSpace=wrap;html=1;aspect=fixed;" vertex="1" parent="1">
          <mxGeometry x="938" y="760" width="80" height="80" as="geometry" />
        </mxCell>
        <mxCell id="z1Rl4krFJPg_lUYL_49s-439" value="M0_S01&lt;div&gt;&lt;br&gt;&lt;/div&gt;" style="whiteSpace=wrap;html=1;aspect=fixed;" vertex="1" parent="1">
          <mxGeometry x="618" y="640" width="80" height="80" as="geometry" />
        </mxCell>
        <mxCell id="z1Rl4krFJPg_lUYL_49s-440" value="M0_S02" style="whiteSpace=wrap;html=1;aspect=fixed;" vertex="1" parent="1">
          <mxGeometry x="508" y="640" width="80" height="80" as="geometry" />
        </mxCell>
        <mxCell id="z1Rl4krFJPg_lUYL_49s-441" style="edgeStyle=orthogonalEdgeStyle;rounded=0;orthogonalLoop=1;jettySize=auto;html=1;exitX=0.5;exitY=1;exitDx=0;exitDy=0;entryX=0.5;entryY=0;entryDx=0;entryDy=0;" edge="1" parent="1" source="z1Rl4krFJPg_lUYL_49s-444" target="z1Rl4krFJPg_lUYL_49s-463">
          <mxGeometry relative="1" as="geometry" />
        </mxCell>
        <mxCell id="z1Rl4krFJPg_lUYL_49s-442" style="edgeStyle=orthogonalEdgeStyle;rounded=0;orthogonalLoop=1;jettySize=auto;html=1;exitX=1;exitY=0.5;exitDx=0;exitDy=0;entryX=0;entryY=0.75;entryDx=0;entryDy=0;" edge="1" parent="1" source="z1Rl4krFJPg_lUYL_49s-444" target="z1Rl4krFJPg_lUYL_49s-473">
          <mxGeometry relative="1" as="geometry" />
        </mxCell>
        <mxCell id="z1Rl4krFJPg_lUYL_49s-443" style="edgeStyle=orthogonalEdgeStyle;rounded=0;orthogonalLoop=1;jettySize=auto;html=1;exitX=0;exitY=1;exitDx=0;exitDy=0;entryX=0;entryY=0.5;entryDx=0;entryDy=0;" edge="1" parent="1" source="z1Rl4krFJPg_lUYL_49s-444" target="z1Rl4krFJPg_lUYL_49s-446">
          <mxGeometry relative="1" as="geometry">
            <Array as="points">
              <mxPoint x="1118" y="600" />
              <mxPoint x="1118" y="620" />
            </Array>
          </mxGeometry>
        </mxCell>
        <mxCell id="z1Rl4krFJPg_lUYL_49s-444" value="M0_FC01" style="rounded=0;whiteSpace=wrap;html=1;" vertex="1" parent="1">
          <mxGeometry x="1108" y="520" width="240" height="80" as="geometry" />
        </mxCell>
        <mxCell id="z1Rl4krFJPg_lUYL_49s-445" style="edgeStyle=orthogonalEdgeStyle;rounded=0;orthogonalLoop=1;jettySize=auto;html=1;entryX=0;entryY=0.25;entryDx=0;entryDy=0;" edge="1" parent="1" source="z1Rl4krFJPg_lUYL_49s-446" target="z1Rl4krFJPg_lUYL_49s-463">
          <mxGeometry relative="1" as="geometry" />
        </mxCell>
        <mxCell id="z1Rl4krFJPg_lUYL_49s-446" value="M0_IB03" style="rounded=0;whiteSpace=wrap;html=1;" vertex="1" parent="1">
          <mxGeometry x="1138" y="580" width="160" height="80" as="geometry" />
        </mxCell>
        <mxCell id="z1Rl4krFJPg_lUYL_49s-447" style="edgeStyle=orthogonalEdgeStyle;rounded=0;orthogonalLoop=1;jettySize=auto;html=1;entryX=0.3;entryY=0.018;entryDx=0;entryDy=0;entryPerimeter=0;" edge="1" parent="1" source="z1Rl4krFJPg_lUYL_49s-438" target="z1Rl4krFJPg_lUYL_49s-433">
          <mxGeometry relative="1" as="geometry" />
        </mxCell>
        <mxCell id="z1Rl4krFJPg_lUYL_49s-448" value="&lt;font style=&quot;font-size: 72px;&quot;&gt;Subsurface=purple&lt;/font&gt;" style="text;html=1;align=center;verticalAlign=middle;whiteSpace=wrap;rounded=0;" vertex="1" parent="1">
          <mxGeometry x="258" y="800" width="180" height="80" as="geometry" />
        </mxCell>
        <mxCell id="z1Rl4krFJPg_lUYL_49s-449" style="edgeStyle=orthogonalEdgeStyle;rounded=0;orthogonalLoop=1;jettySize=auto;html=1;exitX=0.75;exitY=1;exitDx=0;exitDy=0;entryX=0.5;entryY=0;entryDx=0;entryDy=0;" edge="1" parent="1" source="z1Rl4krFJPg_lUYL_49s-450" target="z1Rl4krFJPg_lUYL_49s-532">
          <mxGeometry relative="1" as="geometry" />
        </mxCell>
        <mxCell id="z1Rl4krFJPg_lUYL_49s-450" value="M0_IB05" style="rounded=0;whiteSpace=wrap;html=1;" vertex="1" parent="1">
          <mxGeometry x="1168" y="760" width="160" height="80" as="geometry" />
        </mxCell>
        <mxCell id="z1Rl4krFJPg_lUYL_49s-451" style="edgeStyle=orthogonalEdgeStyle;rounded=0;orthogonalLoop=1;jettySize=auto;html=1;entryX=1;entryY=0.75;entryDx=0;entryDy=0;" edge="1" parent="1" source="z1Rl4krFJPg_lUYL_49s-463" target="z1Rl4krFJPg_lUYL_49s-450">
          <mxGeometry relative="1" as="geometry">
            <Array as="points">
              <mxPoint x="1358" y="820" />
            </Array>
          </mxGeometry>
        </mxCell>
        <mxCell id="z1Rl4krFJPg_lUYL_49s-452" style="edgeStyle=orthogonalEdgeStyle;rounded=0;orthogonalLoop=1;jettySize=auto;html=1;exitX=0.75;exitY=1;exitDx=0;exitDy=0;entryX=0;entryY=0.75;entryDx=0;entryDy=0;" edge="1" parent="1" source="z1Rl4krFJPg_lUYL_49s-463" target="z1Rl4krFJPg_lUYL_49s-456">
          <mxGeometry relative="1" as="geometry" />
        </mxCell>
        <mxCell id="z1Rl4krFJPg_lUYL_49s-453" style="edgeStyle=orthogonalEdgeStyle;rounded=0;orthogonalLoop=1;jettySize=auto;html=1;entryX=0.22;entryY=-0.01;entryDx=0;entryDy=0;entryPerimeter=0;" edge="1" parent="1" source="z1Rl4krFJPg_lUYL_49s-424" target="z1Rl4krFJPg_lUYL_49s-426">
          <mxGeometry relative="1" as="geometry" />
        </mxCell>
        <mxCell id="z1Rl4krFJPg_lUYL_49s-454" style="edgeStyle=orthogonalEdgeStyle;rounded=0;orthogonalLoop=1;jettySize=auto;html=1;exitX=0.5;exitY=1;exitDx=0;exitDy=0;entryX=1;entryY=0.5;entryDx=0;entryDy=0;" edge="1" parent="1" source="z1Rl4krFJPg_lUYL_49s-456" target="z1Rl4krFJPg_lUYL_49s-518">
          <mxGeometry relative="1" as="geometry" />
        </mxCell>
        <mxCell id="z1Rl4krFJPg_lUYL_49s-455" style="edgeStyle=orthogonalEdgeStyle;rounded=0;orthogonalLoop=1;jettySize=auto;html=1;exitX=0.25;exitY=0;exitDx=0;exitDy=0;entryX=0.5;entryY=1;entryDx=0;entryDy=0;" edge="1" parent="1" source="z1Rl4krFJPg_lUYL_49s-456" target="z1Rl4krFJPg_lUYL_49s-467">
          <mxGeometry relative="1" as="geometry" />
        </mxCell>
        <mxCell id="z1Rl4krFJPg_lUYL_49s-456" value="M0_IB06" style="rounded=0;whiteSpace=wrap;html=1;" vertex="1" parent="1">
          <mxGeometry x="1458" y="760" width="160" height="80" as="geometry" />
        </mxCell>
        <mxCell id="z1Rl4krFJPg_lUYL_49s-457" value="drain pipe" style="rounded=1;whiteSpace=wrap;html=1;fillColor=#EA6B66;" vertex="1" parent="1">
          <mxGeometry x="1548" y="620" width="50" height="150" as="geometry" />
        </mxCell>
        <mxCell id="z1Rl4krFJPg_lUYL_49s-458" value="drain pipe" style="rounded=1;whiteSpace=wrap;html=1;fillColor=#EA6B66;" vertex="1" parent="1">
          <mxGeometry x="797" y="620" width="50" height="150" as="geometry" />
        </mxCell>
        <mxCell id="z1Rl4krFJPg_lUYL_49s-459" style="edgeStyle=orthogonalEdgeStyle;rounded=0;orthogonalLoop=1;jettySize=auto;html=1;exitX=1;exitY=0.75;exitDx=0;exitDy=0;" edge="1" parent="1" source="z1Rl4krFJPg_lUYL_49s-460">
          <mxGeometry relative="1" as="geometry">
            <mxPoint x="1148" y="720" as="targetPoint" />
            <Array as="points">
              <mxPoint x="1068" y="700" />
              <mxPoint x="1068" y="750" />
              <mxPoint x="1148" y="750" />
              <mxPoint x="1148" y="720" />
            </Array>
          </mxGeometry>
        </mxCell>
        <mxCell id="z1Rl4krFJPg_lUYL_49s-460" value="M0_IB01" style="rounded=0;whiteSpace=wrap;html=1;" vertex="1" parent="1">
          <mxGeometry x="938" y="580" width="80" height="160" as="geometry" />
        </mxCell>
        <mxCell id="z1Rl4krFJPg_lUYL_49s-461" value="M0_IA01" style="rounded=0;whiteSpace=wrap;html=1;" vertex="1" parent="1">
          <mxGeometry x="698" y="580" width="80" height="80" as="geometry" />
        </mxCell>
        <mxCell id="z1Rl4krFJPg_lUYL_49s-462" style="edgeStyle=orthogonalEdgeStyle;rounded=0;orthogonalLoop=1;jettySize=auto;html=1;exitX=1;exitY=0.75;exitDx=0;exitDy=0;entryX=0;entryY=0.75;entryDx=0;entryDy=0;" edge="1" parent="1" source="z1Rl4krFJPg_lUYL_49s-461" target="z1Rl4krFJPg_lUYL_49s-460">
          <mxGeometry relative="1" as="geometry" />
        </mxCell>
        <mxCell id="z1Rl4krFJPg_lUYL_49s-463" value="M0_IB04" style="rounded=0;whiteSpace=wrap;html=1;" vertex="1" parent="1">
          <mxGeometry x="1328" y="580" width="80" height="160" as="geometry" />
        </mxCell>
        <mxCell id="z1Rl4krFJPg_lUYL_49s-464" style="edgeStyle=orthogonalEdgeStyle;rounded=0;orthogonalLoop=1;jettySize=auto;html=1;entryX=1;entryY=0.5;entryDx=0;entryDy=0;" edge="1" parent="1" source="z1Rl4krFJPg_lUYL_49s-433" target="z1Rl4krFJPg_lUYL_49s-439">
          <mxGeometry relative="1" as="geometry">
            <mxPoint x="858" y="879.9999999999998" as="targetPoint" />
          </mxGeometry>
        </mxCell>
        <mxCell id="z1Rl4krFJPg_lUYL_49s-465" style="edgeStyle=orthogonalEdgeStyle;rounded=0;orthogonalLoop=1;jettySize=auto;html=1;entryX=0;entryY=0.5;entryDx=0;entryDy=0;" edge="1" parent="1" source="z1Rl4krFJPg_lUYL_49s-433" target="z1Rl4krFJPg_lUYL_49s-467">
          <mxGeometry relative="1" as="geometry" />
        </mxCell>
        <mxCell id="z1Rl4krFJPg_lUYL_49s-466" style="edgeStyle=orthogonalEdgeStyle;rounded=0;orthogonalLoop=1;jettySize=auto;html=1;exitX=1;exitY=0.5;exitDx=0;exitDy=0;entryX=0;entryY=0.5;entryDx=0;entryDy=0;" edge="1" parent="1" source="z1Rl4krFJPg_lUYL_49s-467" target="z1Rl4krFJPg_lUYL_49s-470">
          <mxGeometry relative="1" as="geometry" />
        </mxCell>
        <mxCell id="z1Rl4krFJPg_lUYL_49s-467" value="M0_RB01" style="rounded=0;whiteSpace=wrap;html=1;" vertex="1" parent="1">
          <mxGeometry x="1398" y="657.5" width="160" height="80" as="geometry" />
        </mxCell>
        <mxCell id="z1Rl4krFJPg_lUYL_49s-468" style="edgeStyle=orthogonalEdgeStyle;rounded=0;orthogonalLoop=1;jettySize=auto;html=1;exitX=1;exitY=0.5;exitDx=0;exitDy=0;entryX=0;entryY=0.5;entryDx=0;entryDy=0;" edge="1" parent="1" source="z1Rl4krFJPg_lUYL_49s-470" target="z1Rl4krFJPg_lUYL_49s-514">
          <mxGeometry relative="1" as="geometry" />
        </mxCell>
        <mxCell id="z1Rl4krFJPg_lUYL_49s-469" style="edgeStyle=orthogonalEdgeStyle;rounded=0;orthogonalLoop=1;jettySize=auto;html=1;exitX=0.25;exitY=1;exitDx=0;exitDy=0;entryX=0.5;entryY=0;entryDx=0;entryDy=0;" edge="1" parent="1" source="z1Rl4krFJPg_lUYL_49s-470" target="z1Rl4krFJPg_lUYL_49s-574">
          <mxGeometry relative="1" as="geometry" />
        </mxCell>
        <mxCell id="z1Rl4krFJPg_lUYL_49s-470" value="M0_RD02" style="rounded=0;whiteSpace=wrap;html=1;" vertex="1" parent="1">
          <mxGeometry x="1608" y="645" width="320" height="85" as="geometry" />
        </mxCell>
        <mxCell id="z1Rl4krFJPg_lUYL_49s-471" style="edgeStyle=orthogonalEdgeStyle;rounded=0;orthogonalLoop=1;jettySize=auto;html=1;exitX=1;exitY=0.75;exitDx=0;exitDy=0;entryX=0;entryY=0.5;entryDx=0;entryDy=0;" edge="1" parent="1" source="z1Rl4krFJPg_lUYL_49s-473" target="z1Rl4krFJPg_lUYL_49s-475">
          <mxGeometry relative="1" as="geometry" />
        </mxCell>
        <mxCell id="z1Rl4krFJPg_lUYL_49s-472" style="edgeStyle=orthogonalEdgeStyle;rounded=0;orthogonalLoop=1;jettySize=auto;html=1;exitX=1;exitY=0.25;exitDx=0;exitDy=0;" edge="1" parent="1" source="z1Rl4krFJPg_lUYL_49s-473" target="z1Rl4krFJPg_lUYL_49s-485">
          <mxGeometry relative="1" as="geometry" />
        </mxCell>
        <mxCell id="z1Rl4krFJPg_lUYL_49s-473" value="M0_FB01" style="rounded=0;whiteSpace=wrap;html=1;" vertex="1" parent="1">
          <mxGeometry x="1388" y="440" width="80" height="160" as="geometry" />
        </mxCell>
        <mxCell id="z1Rl4krFJPg_lUYL_49s-474" style="edgeStyle=orthogonalEdgeStyle;rounded=0;orthogonalLoop=1;jettySize=auto;html=1;exitX=1;exitY=0.5;exitDx=0;exitDy=0;entryX=0;entryY=0.5;entryDx=0;entryDy=0;" edge="1" parent="1" source="z1Rl4krFJPg_lUYL_49s-475" target="z1Rl4krFJPg_lUYL_49s-478">
          <mxGeometry relative="1" as="geometry" />
        </mxCell>
        <mxCell id="z1Rl4krFJPg_lUYL_49s-475" value="M0_FA01" style="whiteSpace=wrap;html=1;aspect=fixed;" vertex="1" parent="1">
          <mxGeometry x="1518" y="540" width="80" height="80" as="geometry" />
        </mxCell>
        <mxCell id="z1Rl4krFJPg_lUYL_49s-476" style="edgeStyle=orthogonalEdgeStyle;rounded=0;orthogonalLoop=1;jettySize=auto;html=1;exitX=1;exitY=0.5;exitDx=0;exitDy=0;entryX=0.5;entryY=1;entryDx=0;entryDy=0;" edge="1" parent="1" source="z1Rl4krFJPg_lUYL_49s-478" target="z1Rl4krFJPg_lUYL_49s-482">
          <mxGeometry relative="1" as="geometry" />
        </mxCell>
        <mxCell id="z1Rl4krFJPg_lUYL_49s-477" style="edgeStyle=orthogonalEdgeStyle;rounded=0;orthogonalLoop=1;jettySize=auto;html=1;exitX=0.5;exitY=1;exitDx=0;exitDy=0;entryX=0.5;entryY=0;entryDx=0;entryDy=0;" edge="1" parent="1" source="z1Rl4krFJPg_lUYL_49s-478" target="z1Rl4krFJPg_lUYL_49s-470">
          <mxGeometry relative="1" as="geometry" />
        </mxCell>
        <mxCell id="z1Rl4krFJPg_lUYL_49s-478" value="M0_FB02" style="rounded=0;whiteSpace=wrap;html=1;" vertex="1" parent="1">
          <mxGeometry x="1633.5" y="540" width="160" height="80" as="geometry" />
        </mxCell>
        <mxCell id="z1Rl4krFJPg_lUYL_49s-481" style="edgeStyle=orthogonalEdgeStyle;rounded=0;orthogonalLoop=1;jettySize=auto;html=1;exitX=0;exitY=0.25;exitDx=0;exitDy=0;entryX=0.75;entryY=0;entryDx=0;entryDy=0;" edge="1" parent="1" source="z1Rl4krFJPg_lUYL_49s-482" target="z1Rl4krFJPg_lUYL_49s-578">
          <mxGeometry relative="1" as="geometry" />
        </mxCell>
        <mxCell id="z1Rl4krFJPg_lUYL_49s-482" value="M0_FB04&lt;div&gt;(RBOR&#39;s tall concept room)&lt;/div&gt;" style="rounded=0;whiteSpace=wrap;html=1;" vertex="1" parent="1">
          <mxGeometry x="1828" y="380" width="80" height="160" as="geometry" />
        </mxCell>
        <mxCell id="z1Rl4krFJPg_lUYL_49s-630" style="edgeStyle=none;curved=1;rounded=0;orthogonalLoop=1;jettySize=auto;html=1;exitX=0;exitY=0.25;exitDx=0;exitDy=0;entryX=1;entryY=0.75;entryDx=0;entryDy=0;fontSize=12;startSize=8;endSize=8;" edge="1" parent="1" source="z1Rl4krFJPg_lUYL_49s-485" target="z1Rl4krFJPg_lUYL_49s-629">
          <mxGeometry relative="1" as="geometry" />
        </mxCell>
        <mxCell id="z1Rl4krFJPg_lUYL_49s-637" style="edgeStyle=none;curved=1;rounded=0;orthogonalLoop=1;jettySize=auto;html=1;exitX=0.5;exitY=0;exitDx=0;exitDy=0;entryX=0.5;entryY=1;entryDx=0;entryDy=0;fontSize=12;startSize=8;endSize=8;" edge="1" parent="1" source="z1Rl4krFJPg_lUYL_49s-485" target="z1Rl4krFJPg_lUYL_49s-636">
          <mxGeometry relative="1" as="geometry" />
        </mxCell>
        <mxCell id="z1Rl4krFJPg_lUYL_49s-485" value="M0_FB03" style="rounded=0;whiteSpace=wrap;html=1;" vertex="1" parent="1">
          <mxGeometry x="1518" y="360" width="80" height="160" as="geometry" />
        </mxCell>
        <mxCell id="z1Rl4krFJPg_lUYL_49s-486" value="M0_Overlook&lt;div&gt;(One screener)&lt;/div&gt;" style="whiteSpace=wrap;html=1;aspect=fixed;" vertex="1" parent="1">
          <mxGeometry x="1388" y="190" width="80" height="80" as="geometry" />
        </mxCell>
        <mxCell id="z1Rl4krFJPg_lUYL_49s-487" style="edgeStyle=orthogonalEdgeStyle;rounded=0;orthogonalLoop=1;jettySize=auto;html=1;exitX=1;exitY=0.5;exitDx=0;exitDy=0;entryX=0;entryY=0.75;entryDx=0;entryDy=0;" edge="1" parent="1" source="z1Rl4krFJPg_lUYL_49s-489" target="z1Rl4krFJPg_lUYL_49s-491">
          <mxGeometry relative="1" as="geometry" />
        </mxCell>
        <mxCell id="z1Rl4krFJPg_lUYL_49s-653" style="edgeStyle=none;curved=1;rounded=0;orthogonalLoop=1;jettySize=auto;html=1;exitX=0.75;exitY=1;exitDx=0;exitDy=0;entryX=0.25;entryY=0;entryDx=0;entryDy=0;fontSize=12;startSize=8;endSize=8;" edge="1" parent="1" source="z1Rl4krFJPg_lUYL_49s-489" target="z1Rl4krFJPg_lUYL_49s-650">
          <mxGeometry relative="1" as="geometry" />
        </mxCell>
        <mxCell id="z1Rl4krFJPg_lUYL_49s-489" value="M0_FactoryTop1&lt;div&gt;(2 Screener)&lt;/div&gt;" style="rounded=0;whiteSpace=wrap;html=1;" vertex="1" parent="1">
          <mxGeometry x="1530" y="110" width="160" height="80" as="geometry" />
        </mxCell>
        <mxCell id="z1Rl4krFJPg_lUYL_49s-626" style="edgeStyle=none;curved=1;rounded=0;orthogonalLoop=1;jettySize=auto;html=1;exitX=1;exitY=0.75;exitDx=0;exitDy=0;entryX=0;entryY=0.5;entryDx=0;entryDy=0;fontSize=12;startSize=8;endSize=8;" edge="1" parent="1" source="z1Rl4krFJPg_lUYL_49s-491" target="z1Rl4krFJPg_lUYL_49s-625">
          <mxGeometry relative="1" as="geometry" />
        </mxCell>
        <mxCell id="z1Rl4krFJPg_lUYL_49s-491" value="M0_Chimney&lt;div&gt;(kinda tall chimney thing at the top of the factory, may be cut)&lt;/div&gt;" style="rounded=0;whiteSpace=wrap;html=1;" vertex="1" parent="1">
          <mxGeometry x="1728" y="30" width="80" height="160" as="geometry" />
        </mxCell>
        <mxCell id="z1Rl4krFJPg_lUYL_49s-492" value="M0_Overlook2&lt;div&gt;(possible pearl?)&lt;/div&gt;" style="whiteSpace=wrap;html=1;aspect=fixed;" vertex="1" parent="1">
          <mxGeometry x="2020" y="110" width="80" height="80" as="geometry" />
        </mxCell>
        <mxCell id="z1Rl4krFJPg_lUYL_49s-495" value="&lt;font style=&quot;font-size: 48px;&quot;&gt;Fissure Line&lt;/font&gt;" style="shape=offPageConnector;whiteSpace=wrap;html=1;size=0.4634146341463415;fillColor=#99004D;" vertex="1" parent="1">
          <mxGeometry x="2419" y="360" width="80" height="870" as="geometry" />
        </mxCell>
        <mxCell id="z1Rl4krFJPg_lUYL_49s-496" value="M0_S03" style="whiteSpace=wrap;html=1;aspect=fixed;" vertex="1" parent="1">
          <mxGeometry x="1913" y="220" width="80" height="80" as="geometry" />
        </mxCell>
        <mxCell id="z1Rl4krFJPg_lUYL_49s-497" style="edgeStyle=orthogonalEdgeStyle;rounded=0;orthogonalLoop=1;jettySize=auto;html=1;entryX=0.5;entryY=0;entryDx=0;entryDy=0;" edge="1" parent="1" source="z1Rl4krFJPg_lUYL_49s-498" target="z1Rl4krFJPg_lUYL_49s-500">
          <mxGeometry relative="1" as="geometry" />
        </mxCell>
        <mxCell id="z1Rl4krFJPg_lUYL_49s-498" value="&lt;font style=&quot;font-size: 18px;&quot;&gt;THE SHROOM (however we&#39;re gonna structure this lol)&lt;/font&gt;" style="whiteSpace=wrap;html=1;aspect=fixed;" vertex="1" parent="1">
          <mxGeometry x="2559" y="370" width="240" height="240" as="geometry" />
        </mxCell>
        <mxCell id="z1Rl4krFJPg_lUYL_49s-499" style="edgeStyle=orthogonalEdgeStyle;rounded=0;orthogonalLoop=1;jettySize=auto;html=1;exitX=0.5;exitY=1;exitDx=0;exitDy=0;entryX=0.5;entryY=0;entryDx=0;entryDy=0;" edge="1" parent="1" source="z1Rl4krFJPg_lUYL_49s-500" target="z1Rl4krFJPg_lUYL_49s-501">
          <mxGeometry relative="1" as="geometry" />
        </mxCell>
        <mxCell id="z1Rl4krFJPg_lUYL_49s-500" value="M0_FFB01" style="rounded=0;whiteSpace=wrap;html=1;" vertex="1" parent="1">
          <mxGeometry x="2634" y="645" width="90" height="160" as="geometry" />
        </mxCell>
        <mxCell id="z1Rl4krFJPg_lUYL_49s-501" value="M0_FFF01" style="rounded=0;whiteSpace=wrap;html=1;" vertex="1" parent="1">
          <mxGeometry x="2629" y="950" width="80" height="80" as="geometry" />
        </mxCell>
        <mxCell id="z1Rl4krFJPg_lUYL_49s-502" value="M0_PS_GATE" style="whiteSpace=wrap;html=1;aspect=fixed;" vertex="1" parent="1">
          <mxGeometry x="3599" y="1480" width="80" height="80" as="geometry" />
        </mxCell>
        <mxCell id="z1Rl4krFJPg_lUYL_49s-503" style="edgeStyle=orthogonalEdgeStyle;rounded=0;orthogonalLoop=1;jettySize=auto;html=1;exitX=1;exitY=0.5;exitDx=0;exitDy=0;entryX=0;entryY=0.5;entryDx=0;entryDy=0;" edge="1" parent="1" source="z1Rl4krFJPg_lUYL_49s-504" target="z1Rl4krFJPg_lUYL_49s-502">
          <mxGeometry relative="1" as="geometry" />
        </mxCell>
        <mxCell id="z1Rl4krFJPg_lUYL_49s-504" value="M0_PS02" style="rounded=0;whiteSpace=wrap;html=1;" vertex="1" parent="1">
          <mxGeometry x="3289" y="1480" width="270" height="80" as="geometry" />
        </mxCell>
        <mxCell id="z1Rl4krFJPg_lUYL_49s-505" style="edgeStyle=orthogonalEdgeStyle;rounded=0;orthogonalLoop=1;jettySize=auto;html=1;exitX=1;exitY=0.25;exitDx=0;exitDy=0;entryX=0;entryY=0.5;entryDx=0;entryDy=0;" edge="1" parent="1" source="z1Rl4krFJPg_lUYL_49s-506" target="z1Rl4krFJPg_lUYL_49s-509">
          <mxGeometry relative="1" as="geometry" />
        </mxCell>
        <mxCell id="z1Rl4krFJPg_lUYL_49s-506" value="M0_DS_GATE" style="rounded=0;whiteSpace=wrap;html=1;" vertex="1" parent="1">
          <mxGeometry x="778" y="1260" width="80" height="160" as="geometry" />
        </mxCell>
        <mxCell id="z1Rl4krFJPg_lUYL_49s-508" style="edgeStyle=orthogonalEdgeStyle;rounded=0;orthogonalLoop=1;jettySize=auto;html=1;exitX=1;exitY=0.5;exitDx=0;exitDy=0;entryX=0;entryY=0.5;entryDx=0;entryDy=0;" edge="1" parent="1" source="z1Rl4krFJPg_lUYL_49s-509" target="z1Rl4krFJPg_lUYL_49s-520">
          <mxGeometry relative="1" as="geometry" />
        </mxCell>
        <mxCell id="z1Rl4krFJPg_lUYL_49s-509" value="M0_ID01" style="rounded=0;whiteSpace=wrap;html=1;" vertex="1" parent="1">
          <mxGeometry x="928" y="1270" width="400" height="80" as="geometry" />
        </mxCell>
        <mxCell id="z1Rl4krFJPg_lUYL_49s-510" value="A very cavernous echo room I think&lt;div&gt;(You can decide the size seroen :)&lt;/div&gt;" style="whiteSpace=wrap;html=1;aspect=fixed;" vertex="1" parent="1">
          <mxGeometry x="2020" y="1185" width="160" height="160" as="geometry" />
        </mxCell>
        <mxCell id="z1Rl4krFJPg_lUYL_49s-622" style="edgeStyle=none;curved=1;rounded=0;orthogonalLoop=1;jettySize=auto;html=1;exitX=1;exitY=0.5;exitDx=0;exitDy=0;entryX=0;entryY=0.5;entryDx=0;entryDy=0;fontSize=12;startSize=8;endSize=8;" edge="1" parent="1" source="z1Rl4krFJPg_lUYL_49s-512" target="z1Rl4krFJPg_lUYL_49s-510">
          <mxGeometry relative="1" as="geometry" />
        </mxCell>
        <mxCell id="z1Rl4krFJPg_lUYL_49s-512" value="M0_UA03&lt;div&gt;(Imspect&#39;s very effect spam room comade by me)&lt;/div&gt;" style="whiteSpace=wrap;html=1;aspect=fixed;" vertex="1" parent="1">
          <mxGeometry x="1893" y="1220" width="90" height="90" as="geometry" />
        </mxCell>
        <mxCell id="z1Rl4krFJPg_lUYL_49s-513" style="edgeStyle=orthogonalEdgeStyle;rounded=0;orthogonalLoop=1;jettySize=auto;html=1;exitX=1;exitY=0.5;exitDx=0;exitDy=0;entryX=0;entryY=0.5;entryDx=0;entryDy=0;" edge="1" parent="1" source="z1Rl4krFJPg_lUYL_49s-514" target="z1Rl4krFJPg_lUYL_49s-584">
          <mxGeometry relative="1" as="geometry" />
        </mxCell>
        <mxCell id="z1Rl4krFJPg_lUYL_49s-514" value="M0_RC02" style="rounded=0;whiteSpace=wrap;html=1;" vertex="1" parent="1">
          <mxGeometry x="1968" y="655" width="250" height="80" as="geometry" />
        </mxCell>
        <mxCell id="z1Rl4krFJPg_lUYL_49s-516" style="edgeStyle=orthogonalEdgeStyle;rounded=0;orthogonalLoop=1;jettySize=auto;html=1;exitX=1;exitY=0.5;exitDx=0;exitDy=0;entryX=-0.007;entryY=0.832;entryDx=0;entryDy=0;entryPerimeter=0;" edge="1" parent="1" target="z1Rl4krFJPg_lUYL_49s-498">
          <mxGeometry relative="1" as="geometry">
            <mxPoint x="2451" y="570" as="sourcePoint" />
          </mxGeometry>
        </mxCell>
        <mxCell id="z1Rl4krFJPg_lUYL_49s-517" style="edgeStyle=orthogonalEdgeStyle;rounded=0;orthogonalLoop=1;jettySize=auto;html=1;exitX=1;exitY=0.5;exitDx=0;exitDy=0;entryX=0.083;entryY=0.415;entryDx=0;entryDy=0;entryPerimeter=0;" edge="1" parent="1" source="z1Rl4krFJPg_lUYL_49s-515" target="z1Rl4krFJPg_lUYL_49s-500">
          <mxGeometry relative="1" as="geometry" />
        </mxCell>
        <mxCell id="z1Rl4krFJPg_lUYL_49s-518" value="M0_S04" style="whiteSpace=wrap;html=1;aspect=fixed;" vertex="1" parent="1">
          <mxGeometry x="1448" y="850" width="40" height="40" as="geometry" />
        </mxCell>
        <mxCell id="z1Rl4krFJPg_lUYL_49s-519" style="edgeStyle=orthogonalEdgeStyle;rounded=0;orthogonalLoop=1;jettySize=auto;html=1;exitX=1;exitY=0.5;exitDx=0;exitDy=0;entryX=0.25;entryY=1;entryDx=0;entryDy=0;" edge="1" parent="1" source="z1Rl4krFJPg_lUYL_49s-520" target="z1Rl4krFJPg_lUYL_49s-567">
          <mxGeometry relative="1" as="geometry" />
        </mxCell>
        <mxCell id="z1Rl4krFJPg_lUYL_49s-520" value="M0_UA01" style="whiteSpace=wrap;html=1;aspect=fixed;" vertex="1" parent="1">
          <mxGeometry x="1398" y="1260" width="80" height="80" as="geometry" />
        </mxCell>
        <mxCell id="z1Rl4krFJPg_lUYL_49s-521" style="edgeStyle=orthogonalEdgeStyle;rounded=0;orthogonalLoop=1;jettySize=auto;html=1;exitX=0.25;exitY=1;exitDx=0;exitDy=0;" edge="1" parent="1" source="z1Rl4krFJPg_lUYL_49s-523" target="z1Rl4krFJPg_lUYL_49s-509">
          <mxGeometry relative="1" as="geometry">
            <Array as="points">
              <mxPoint x="1198" y="1240" />
              <mxPoint x="1158" y="1240" />
            </Array>
          </mxGeometry>
        </mxCell>
        <mxCell id="z1Rl4krFJPg_lUYL_49s-522" style="edgeStyle=orthogonalEdgeStyle;rounded=0;orthogonalLoop=1;jettySize=auto;html=1;exitX=1;exitY=0.5;exitDx=0;exitDy=0;entryX=0;entryY=0.5;entryDx=0;entryDy=0;" edge="1" parent="1" source="z1Rl4krFJPg_lUYL_49s-523" target="z1Rl4krFJPg_lUYL_49s-572">
          <mxGeometry relative="1" as="geometry" />
        </mxCell>
        <mxCell id="z1Rl4krFJPg_lUYL_49s-523" value="M0_IB07" style="rounded=0;whiteSpace=wrap;html=1;" vertex="1" parent="1">
          <mxGeometry x="1158" y="1160" width="160" height="80" as="geometry" />
        </mxCell>
        <mxCell id="z1Rl4krFJPg_lUYL_49s-524" style="edgeStyle=orthogonalEdgeStyle;rounded=0;orthogonalLoop=1;jettySize=auto;html=1;exitX=1;exitY=0.5;exitDx=0;exitDy=0;entryX=0;entryY=0.5;entryDx=0;entryDy=0;" edge="1" parent="1" source="z1Rl4krFJPg_lUYL_49s-526" target="z1Rl4krFJPg_lUYL_49s-535">
          <mxGeometry relative="1" as="geometry" />
        </mxCell>
        <mxCell id="z1Rl4krFJPg_lUYL_49s-525" style="edgeStyle=orthogonalEdgeStyle;rounded=0;orthogonalLoop=1;jettySize=auto;html=1;exitX=0.5;exitY=0;exitDx=0;exitDy=0;entryX=0.5;entryY=1;entryDx=0;entryDy=0;" edge="1" parent="1" source="z1Rl4krFJPg_lUYL_49s-526" target="z1Rl4krFJPg_lUYL_49s-533">
          <mxGeometry relative="1" as="geometry" />
        </mxCell>
        <mxCell id="z1Rl4krFJPg_lUYL_49s-526" value="M0_UC01" style="rounded=0;whiteSpace=wrap;html=1;" vertex="1" parent="1">
          <mxGeometry x="1408" y="1060" width="244.75" height="80" as="geometry" />
        </mxCell>
        <mxCell id="z1Rl4krFJPg_lUYL_49s-527" value="" style="edgeStyle=orthogonalEdgeStyle;rounded=0;orthogonalLoop=1;jettySize=auto;html=1;exitX=1;exitY=0.5;exitDx=0;exitDy=0;entryX=0;entryY=0.5;entryDx=0;entryDy=0;" edge="1" parent="1" source="z1Rl4krFJPg_lUYL_49s-438" target="z1Rl4krFJPg_lUYL_49s-450">
          <mxGeometry relative="1" as="geometry">
            <mxPoint x="1018" y="800" as="sourcePoint" />
            <mxPoint x="1088" y="800" as="targetPoint" />
          </mxGeometry>
        </mxCell>
        <mxCell id="z1Rl4krFJPg_lUYL_49s-528" style="edgeStyle=orthogonalEdgeStyle;rounded=0;orthogonalLoop=1;jettySize=auto;html=1;exitX=1;exitY=0.5;exitDx=0;exitDy=0;entryX=0;entryY=0.75;entryDx=0;entryDy=0;" edge="1" parent="1" source="z1Rl4krFJPg_lUYL_49s-529" target="z1Rl4krFJPg_lUYL_49s-532">
          <mxGeometry relative="1" as="geometry" />
        </mxCell>
        <mxCell id="z1Rl4krFJPg_lUYL_49s-529" value="M0_IC01" style="rounded=0;whiteSpace=wrap;html=1;" vertex="1" parent="1">
          <mxGeometry x="974" y="850" width="244" height="80" as="geometry" />
        </mxCell>
        <mxCell id="z1Rl4krFJPg_lUYL_49s-530" value="" style="rounded=1;whiteSpace=wrap;html=1;fillColor=#EA6B66;" vertex="1" parent="1">
          <mxGeometry x="1118" y="810" width="40" height="60" as="geometry" />
        </mxCell>
        <mxCell id="z1Rl4krFJPg_lUYL_49s-531" value="" style="rounded=1;whiteSpace=wrap;html=1;fillColor=#EA6B66;" vertex="1" parent="1">
          <mxGeometry x="1028" y="810" width="40" height="60" as="geometry" />
        </mxCell>
        <mxCell id="z1Rl4krFJPg_lUYL_49s-532" value="M0_IA03" style="whiteSpace=wrap;html=1;aspect=fixed;" vertex="1" parent="1">
          <mxGeometry x="1258" y="860" width="80" height="80" as="geometry" />
        </mxCell>
        <mxCell id="z1Rl4krFJPg_lUYL_49s-533" value="M0_S05" style="whiteSpace=wrap;html=1;aspect=fixed;" vertex="1" parent="1">
          <mxGeometry x="1508" y="1000" width="40" height="40" as="geometry" />
        </mxCell>
        <mxCell id="z1Rl4krFJPg_lUYL_49s-534" style="edgeStyle=orthogonalEdgeStyle;rounded=0;orthogonalLoop=1;jettySize=auto;html=1;exitX=1;exitY=0.5;exitDx=0;exitDy=0;entryX=0;entryY=0.5;entryDx=0;entryDy=0;" edge="1" parent="1" source="z1Rl4krFJPg_lUYL_49s-535" target="z1Rl4krFJPg_lUYL_49s-592">
          <mxGeometry relative="1" as="geometry" />
        </mxCell>
        <mxCell id="z1Rl4krFJPg_lUYL_49s-535" value="M0_UB01" style="rounded=0;whiteSpace=wrap;html=1;" vertex="1" parent="1">
          <mxGeometry x="1703" y="1060" width="190" height="80" as="geometry" />
        </mxCell>
        <mxCell id="z1Rl4krFJPg_lUYL_49s-536" style="edgeStyle=orthogonalEdgeStyle;rounded=0;orthogonalLoop=1;jettySize=auto;html=1;exitX=0.5;exitY=0;exitDx=0;exitDy=0;entryX=0.5;entryY=1;entryDx=0;entryDy=0;" edge="1" parent="1" source="z1Rl4krFJPg_lUYL_49s-539" target="z1Rl4krFJPg_lUYL_49s-470">
          <mxGeometry relative="1" as="geometry" />
        </mxCell>
        <mxCell id="z1Rl4krFJPg_lUYL_49s-537" style="edgeStyle=orthogonalEdgeStyle;rounded=0;orthogonalLoop=1;jettySize=auto;html=1;exitX=1;exitY=0.25;exitDx=0;exitDy=0;entryX=0;entryY=0.5;entryDx=0;entryDy=0;entryPerimeter=0;" edge="1" parent="1" source="z1Rl4krFJPg_lUYL_49s-539" target="z1Rl4krFJPg_lUYL_49s-541">
          <mxGeometry relative="1" as="geometry">
            <mxPoint x="1887.9999999999995" y="800" as="targetPoint" />
          </mxGeometry>
        </mxCell>
        <mxCell id="z1Rl4krFJPg_lUYL_49s-538" style="edgeStyle=orthogonalEdgeStyle;rounded=0;orthogonalLoop=1;jettySize=auto;html=1;exitX=0.5;exitY=1;exitDx=0;exitDy=0;entryX=0.75;entryY=0;entryDx=0;entryDy=0;" edge="1" parent="1" source="z1Rl4krFJPg_lUYL_49s-539" target="z1Rl4krFJPg_lUYL_49s-575">
          <mxGeometry relative="1" as="geometry" />
        </mxCell>
        <mxCell id="z1Rl4krFJPg_lUYL_49s-539" value="M0_UD02" style="whiteSpace=wrap;html=1;aspect=fixed;" vertex="1" parent="1">
          <mxGeometry x="1748" y="800" width="160" height="160" as="geometry" />
        </mxCell>
        <mxCell id="z1Rl4krFJPg_lUYL_49s-540" style="edgeStyle=orthogonalEdgeStyle;rounded=0;orthogonalLoop=1;jettySize=auto;html=1;exitX=1;exitY=0.5;exitDx=0;exitDy=0;" edge="1" parent="1" source="z1Rl4krFJPg_lUYL_49s-541" target="z1Rl4krFJPg_lUYL_49s-514">
          <mxGeometry relative="1" as="geometry">
            <Array as="points">
              <mxPoint x="2078" y="800" />
              <mxPoint x="2078" y="740" />
              <mxPoint x="2088" y="740" />
            </Array>
          </mxGeometry>
        </mxCell>
        <mxCell id="z1Rl4krFJPg_lUYL_49s-541" value="M0_UB02" style="rounded=0;whiteSpace=wrap;html=1;" vertex="1" parent="1">
          <mxGeometry x="1948" y="760" width="160" height="80" as="geometry" />
        </mxCell>
        <mxCell id="z1Rl4krFJPg_lUYL_49s-542" style="edgeStyle=orthogonalEdgeStyle;rounded=0;orthogonalLoop=1;jettySize=auto;html=1;exitX=0;exitY=0.5;exitDx=0;exitDy=0;entryX=0.5;entryY=0;entryDx=0;entryDy=0;" edge="1" parent="1" source="z1Rl4krFJPg_lUYL_49s-545" target="z1Rl4krFJPg_lUYL_49s-565">
          <mxGeometry relative="1" as="geometry" />
        </mxCell>
        <mxCell id="z1Rl4krFJPg_lUYL_49s-543" style="edgeStyle=orthogonalEdgeStyle;rounded=0;orthogonalLoop=1;jettySize=auto;html=1;exitX=1;exitY=0.5;exitDx=0;exitDy=0;entryX=0;entryY=0.5;entryDx=0;entryDy=0;" edge="1" parent="1" source="z1Rl4krFJPg_lUYL_49s-545" target="z1Rl4krFJPg_lUYL_49s-539">
          <mxGeometry relative="1" as="geometry" />
        </mxCell>
        <mxCell id="z1Rl4krFJPg_lUYL_49s-544" style="edgeStyle=orthogonalEdgeStyle;rounded=0;orthogonalLoop=1;jettySize=auto;html=1;exitX=0.5;exitY=1;exitDx=0;exitDy=0;entryX=0;entryY=0.5;entryDx=0;entryDy=0;" edge="1" parent="1" source="z1Rl4krFJPg_lUYL_49s-545" target="z1Rl4krFJPg_lUYL_49s-575">
          <mxGeometry relative="1" as="geometry" />
        </mxCell>
        <mxCell id="z1Rl4krFJPg_lUYL_49s-545" value="M0_UC02" style="rounded=0;whiteSpace=wrap;html=1;" vertex="1" parent="1">
          <mxGeometry x="1448" y="890" width="260" height="80" as="geometry" />
        </mxCell>
        <mxCell id="z1Rl4krFJPg_lUYL_49s-546" style="edgeStyle=orthogonalEdgeStyle;rounded=0;orthogonalLoop=1;jettySize=auto;html=1;exitX=0.5;exitY=0;exitDx=0;exitDy=0;entryX=0.5;entryY=1;entryDx=0;entryDy=0;" edge="1" parent="1" source="z1Rl4krFJPg_lUYL_49s-547" target="z1Rl4krFJPg_lUYL_49s-541">
          <mxGeometry relative="1" as="geometry" />
        </mxCell>
        <mxCell id="z1Rl4krFJPg_lUYL_49s-547" value="M0_UB03" style="rounded=0;whiteSpace=wrap;html=1;" vertex="1" parent="1">
          <mxGeometry x="1948" y="890" width="80" height="165" as="geometry" />
        </mxCell>
        <mxCell id="z1Rl4krFJPg_lUYL_49s-548" style="edgeStyle=orthogonalEdgeStyle;rounded=0;orthogonalLoop=1;jettySize=auto;html=1;exitX=1;exitY=0.5;exitDx=0;exitDy=0;entryX=0;entryY=0.5;entryDx=0;entryDy=0;" edge="1" parent="1" source="z1Rl4krFJPg_lUYL_49s-551" target="z1Rl4krFJPg_lUYL_49s-526">
          <mxGeometry relative="1" as="geometry" />
        </mxCell>
        <mxCell id="z1Rl4krFJPg_lUYL_49s-549" style="edgeStyle=orthogonalEdgeStyle;rounded=0;orthogonalLoop=1;jettySize=auto;html=1;exitX=0.5;exitY=1;exitDx=0;exitDy=0;entryX=0.5;entryY=0;entryDx=0;entryDy=0;" edge="1" parent="1" source="z1Rl4krFJPg_lUYL_49s-551" target="z1Rl4krFJPg_lUYL_49s-523">
          <mxGeometry relative="1" as="geometry" />
        </mxCell>
        <mxCell id="z1Rl4krFJPg_lUYL_49s-550" style="edgeStyle=orthogonalEdgeStyle;rounded=0;orthogonalLoop=1;jettySize=auto;html=1;exitX=0.75;exitY=0;exitDx=0;exitDy=0;entryX=0.5;entryY=1;entryDx=0;entryDy=0;" edge="1" parent="1" source="z1Rl4krFJPg_lUYL_49s-551" target="z1Rl4krFJPg_lUYL_49s-565">
          <mxGeometry relative="1" as="geometry" />
        </mxCell>
        <mxCell id="z1Rl4krFJPg_lUYL_49s-551" value="M0_IC06" style="rounded=0;whiteSpace=wrap;html=1;" vertex="1" parent="1">
          <mxGeometry x="1138" y="1060" width="230" height="80" as="geometry" />
        </mxCell>
        <mxCell id="z1Rl4krFJPg_lUYL_49s-552" style="edgeStyle=orthogonalEdgeStyle;rounded=0;orthogonalLoop=1;jettySize=auto;html=1;exitX=0.25;exitY=1;exitDx=0;exitDy=0;entryX=1;entryY=0.25;entryDx=0;entryDy=0;" edge="1" parent="1" source="z1Rl4krFJPg_lUYL_49s-555" target="z1Rl4krFJPg_lUYL_49s-420">
          <mxGeometry relative="1" as="geometry" />
        </mxCell>
        <mxCell id="z1Rl4krFJPg_lUYL_49s-553" style="edgeStyle=orthogonalEdgeStyle;rounded=0;orthogonalLoop=1;jettySize=auto;html=1;exitX=0.75;exitY=1;exitDx=0;exitDy=0;entryX=0;entryY=0.25;entryDx=0;entryDy=0;" edge="1" parent="1" source="z1Rl4krFJPg_lUYL_49s-555" target="z1Rl4krFJPg_lUYL_49s-444">
          <mxGeometry relative="1" as="geometry" />
        </mxCell>
        <mxCell id="z1Rl4krFJPg_lUYL_49s-554" style="edgeStyle=orthogonalEdgeStyle;rounded=0;orthogonalLoop=1;jettySize=auto;html=1;exitX=1;exitY=0.5;exitDx=0;exitDy=0;entryX=0;entryY=0.5;entryDx=0;entryDy=0;" edge="1" parent="1" source="z1Rl4krFJPg_lUYL_49s-555" target="z1Rl4krFJPg_lUYL_49s-556">
          <mxGeometry relative="1" as="geometry" />
        </mxCell>
        <mxCell id="z1Rl4krFJPg_lUYL_49s-555" value="M0_E01" style="rounded=0;whiteSpace=wrap;html=1;" vertex="1" parent="1">
          <mxGeometry x="778" y="410" width="402" height="80" as="geometry" />
        </mxCell>
        <mxCell id="z1Rl4krFJPg_lUYL_49s-556" value="M0_A06" style="whiteSpace=wrap;html=1;aspect=fixed;" vertex="1" parent="1">
          <mxGeometry x="1218" y="410" width="80" height="80" as="geometry" />
        </mxCell>
        <mxCell id="z1Rl4krFJPg_lUYL_49s-557" style="edgeStyle=orthogonalEdgeStyle;rounded=0;orthogonalLoop=1;jettySize=auto;html=1;exitX=1;exitY=0.25;exitDx=0;exitDy=0;entryX=0;entryY=0.5;entryDx=0;entryDy=0;" edge="1" parent="1" source="z1Rl4krFJPg_lUYL_49s-559" target="z1Rl4krFJPg_lUYL_49s-529">
          <mxGeometry relative="1" as="geometry" />
        </mxCell>
        <mxCell id="z1Rl4krFJPg_lUYL_49s-558" style="edgeStyle=orthogonalEdgeStyle;rounded=0;orthogonalLoop=1;jettySize=auto;html=1;exitX=1;exitY=0.75;exitDx=0;exitDy=0;entryX=0;entryY=0.5;entryDx=0;entryDy=0;" edge="1" parent="1" source="z1Rl4krFJPg_lUYL_49s-559" target="z1Rl4krFJPg_lUYL_49s-561">
          <mxGeometry relative="1" as="geometry" />
        </mxCell>
        <mxCell id="z1Rl4krFJPg_lUYL_49s-559" value="M0_IB65" style="rounded=0;whiteSpace=wrap;html=1;" vertex="1" parent="1">
          <mxGeometry x="858" y="880" width="80" height="160" as="geometry" />
        </mxCell>
        <mxCell id="z1Rl4krFJPg_lUYL_49s-560" style="edgeStyle=orthogonalEdgeStyle;rounded=0;orthogonalLoop=1;jettySize=auto;html=1;exitX=1;exitY=0.5;exitDx=0;exitDy=0;entryX=0;entryY=0.5;entryDx=0;entryDy=0;" edge="1" parent="1" source="z1Rl4krFJPg_lUYL_49s-561" target="z1Rl4krFJPg_lUYL_49s-564">
          <mxGeometry relative="1" as="geometry" />
        </mxCell>
        <mxCell id="z1Rl4krFJPg_lUYL_49s-561" value="M0_IA10" style="whiteSpace=wrap;html=1;aspect=fixed;" vertex="1" parent="1">
          <mxGeometry x="953" y="960" width="80" height="80" as="geometry" />
        </mxCell>
        <mxCell id="z1Rl4krFJPg_lUYL_49s-562" value="" style="edgeStyle=orthogonalEdgeStyle;rounded=0;orthogonalLoop=1;jettySize=auto;html=1;exitX=0.5;exitY=1;exitDx=0;exitDy=0;entryX=0.25;entryY=0;entryDx=0;entryDy=0;" edge="1" parent="1" source="z1Rl4krFJPg_lUYL_49s-529" target="z1Rl4krFJPg_lUYL_49s-564">
          <mxGeometry relative="1" as="geometry">
            <mxPoint x="1096" y="930" as="sourcePoint" />
            <mxPoint x="1196" y="1040" as="targetPoint" />
          </mxGeometry>
        </mxCell>
        <mxCell id="z1Rl4krFJPg_lUYL_49s-563" style="edgeStyle=orthogonalEdgeStyle;rounded=0;orthogonalLoop=1;jettySize=auto;html=1;exitX=1;exitY=0.5;exitDx=0;exitDy=0;entryX=0.5;entryY=0;entryDx=0;entryDy=0;" edge="1" parent="1" source="z1Rl4krFJPg_lUYL_49s-564" target="z1Rl4krFJPg_lUYL_49s-551">
          <mxGeometry relative="1" as="geometry" />
        </mxCell>
        <mxCell id="z1Rl4krFJPg_lUYL_49s-564" value="M0_IB45" style="rounded=0;whiteSpace=wrap;html=1;" vertex="1" parent="1">
          <mxGeometry x="1058" y="960" width="180" height="80" as="geometry" />
        </mxCell>
        <mxCell id="z1Rl4krFJPg_lUYL_49s-565" value="M0_IB67" style="rounded=0;whiteSpace=wrap;html=1;" vertex="1" parent="1">
          <mxGeometry x="1278" y="960" width="160" height="80" as="geometry" />
        </mxCell>
        <mxCell id="z1Rl4krFJPg_lUYL_49s-566" style="edgeStyle=orthogonalEdgeStyle;rounded=0;orthogonalLoop=1;jettySize=auto;html=1;exitX=0.25;exitY=0;exitDx=0;exitDy=0;entryX=0.5;entryY=1;entryDx=0;entryDy=0;" edge="1" parent="1" source="z1Rl4krFJPg_lUYL_49s-567" target="z1Rl4krFJPg_lUYL_49s-526">
          <mxGeometry relative="1" as="geometry" />
        </mxCell>
        <mxCell id="z1Rl4krFJPg_lUYL_49s-567" value="M0_UC68" style="rounded=0;whiteSpace=wrap;html=1;" vertex="1" parent="1">
          <mxGeometry x="1458" y="1160" width="280" height="80" as="geometry" />
        </mxCell>
        <mxCell id="z1Rl4krFJPg_lUYL_49s-568" style="edgeStyle=orthogonalEdgeStyle;rounded=0;orthogonalLoop=1;jettySize=auto;html=1;entryX=1;entryY=0.5;entryDx=0;entryDy=0;" edge="1" parent="1" source="z1Rl4krFJPg_lUYL_49s-570" target="z1Rl4krFJPg_lUYL_49s-567">
          <mxGeometry relative="1" as="geometry" />
        </mxCell>
        <mxCell id="z1Rl4krFJPg_lUYL_49s-569" style="edgeStyle=orthogonalEdgeStyle;rounded=0;orthogonalLoop=1;jettySize=auto;html=1;exitX=0.5;exitY=0;exitDx=0;exitDy=0;entryX=0.5;entryY=1;entryDx=0;entryDy=0;" edge="1" parent="1" source="z1Rl4krFJPg_lUYL_49s-570" target="z1Rl4krFJPg_lUYL_49s-535">
          <mxGeometry relative="1" as="geometry" />
        </mxCell>
        <mxCell id="z1Rl4krFJPg_lUYL_49s-621" style="edgeStyle=none;curved=1;rounded=0;orthogonalLoop=1;jettySize=auto;html=1;exitX=1;exitY=0.5;exitDx=0;exitDy=0;entryX=0;entryY=0.5;entryDx=0;entryDy=0;fontSize=12;startSize=8;endSize=8;" edge="1" parent="1" source="z1Rl4krFJPg_lUYL_49s-570" target="z1Rl4krFJPg_lUYL_49s-512">
          <mxGeometry relative="1" as="geometry" />
        </mxCell>
        <mxCell id="z1Rl4krFJPg_lUYL_49s-570" value="M0_UA24" style="whiteSpace=wrap;html=1;aspect=fixed;" vertex="1" parent="1">
          <mxGeometry x="1758" y="1160" width="80" height="80" as="geometry" />
        </mxCell>
        <mxCell id="z1Rl4krFJPg_lUYL_49s-571" style="edgeStyle=orthogonalEdgeStyle;rounded=0;orthogonalLoop=1;jettySize=auto;html=1;exitX=1;exitY=0.5;exitDx=0;exitDy=0;entryX=0;entryY=0.5;entryDx=0;entryDy=0;" edge="1" parent="1" source="z1Rl4krFJPg_lUYL_49s-572" target="z1Rl4krFJPg_lUYL_49s-567">
          <mxGeometry relative="1" as="geometry" />
        </mxCell>
        <mxCell id="z1Rl4krFJPg_lUYL_49s-572" value="M0_IA47" style="whiteSpace=wrap;html=1;aspect=fixed;" vertex="1" parent="1">
          <mxGeometry x="1348" y="1160" width="80" height="80" as="geometry" />
        </mxCell>
        <mxCell id="z1Rl4krFJPg_lUYL_49s-573" style="edgeStyle=orthogonalEdgeStyle;rounded=0;orthogonalLoop=1;jettySize=auto;html=1;exitX=0;exitY=0.75;exitDx=0;exitDy=0;entryX=0.5;entryY=0;entryDx=0;entryDy=0;" edge="1" parent="1" source="z1Rl4krFJPg_lUYL_49s-574" target="z1Rl4krFJPg_lUYL_49s-545">
          <mxGeometry relative="1" as="geometry" />
        </mxCell>
        <mxCell id="z1Rl4krFJPg_lUYL_49s-574" value="M0_IB99" style="rounded=0;whiteSpace=wrap;html=1;" vertex="1" parent="1">
          <mxGeometry x="1638" y="750" width="80" height="140" as="geometry" />
        </mxCell>
        <mxCell id="z1Rl4krFJPg_lUYL_49s-575" value="M0_UD66" style="rounded=0;whiteSpace=wrap;html=1;" vertex="1" parent="1">
          <mxGeometry x="1598" y="980" width="315" height="60" as="geometry" />
        </mxCell>
        <mxCell id="z1Rl4krFJPg_lUYL_49s-576" style="edgeStyle=orthogonalEdgeStyle;rounded=0;orthogonalLoop=1;jettySize=auto;html=1;exitX=0.5;exitY=0;exitDx=0;exitDy=0;entryX=0.634;entryY=1.064;entryDx=0;entryDy=0;entryPerimeter=0;" edge="1" parent="1" source="z1Rl4krFJPg_lUYL_49s-535" target="z1Rl4krFJPg_lUYL_49s-575">
          <mxGeometry relative="1" as="geometry" />
        </mxCell>
        <mxCell id="z1Rl4krFJPg_lUYL_49s-577" style="edgeStyle=orthogonalEdgeStyle;rounded=0;orthogonalLoop=1;jettySize=auto;html=1;exitX=0;exitY=0.5;exitDx=0;exitDy=0;entryX=1;entryY=0.75;entryDx=0;entryDy=0;" edge="1" parent="1" source="z1Rl4krFJPg_lUYL_49s-578" target="z1Rl4krFJPg_lUYL_49s-485">
          <mxGeometry relative="1" as="geometry" />
        </mxCell>
        <mxCell id="z1Rl4krFJPg_lUYL_49s-578" value="M0_FC55" style="rounded=0;whiteSpace=wrap;html=1;" vertex="1" parent="1">
          <mxGeometry x="1618" y="440" width="200" height="80" as="geometry" />
        </mxCell>
        <mxCell id="z1Rl4krFJPg_lUYL_49s-643" style="edgeStyle=none;curved=1;rounded=0;orthogonalLoop=1;jettySize=auto;html=1;exitX=0.5;exitY=1;exitDx=0;exitDy=0;entryX=0.25;entryY=0;entryDx=0;entryDy=0;fontSize=12;startSize=8;endSize=8;" edge="1" parent="1" source="z1Rl4krFJPg_lUYL_49s-581" target="z1Rl4krFJPg_lUYL_49s-642">
          <mxGeometry relative="1" as="geometry" />
        </mxCell>
        <mxCell id="z1Rl4krFJPg_lUYL_49s-581" value="M0_C67" style="rounded=0;whiteSpace=wrap;html=1;" vertex="1" parent="1">
          <mxGeometry x="1918" y="320" width="80" height="190" as="geometry" />
        </mxCell>
        <mxCell id="z1Rl4krFJPg_lUYL_49s-584" value="M0_Broken Rail (as it nears the fissure" style="whiteSpace=wrap;html=1;aspect=fixed;" vertex="1" parent="1">
          <mxGeometry x="2238" y="655" width="82" height="82" as="geometry" />
        </mxCell>
        <mxCell id="z1Rl4krFJPg_lUYL_49s-586" style="edgeStyle=orthogonalEdgeStyle;rounded=0;orthogonalLoop=1;jettySize=auto;html=1;exitX=0;exitY=0.25;exitDx=0;exitDy=0;entryX=0.5;entryY=0;entryDx=0;entryDy=0;" edge="1" parent="1" source="z1Rl4krFJPg_lUYL_49s-587" target="z1Rl4krFJPg_lUYL_49s-593">
          <mxGeometry relative="1" as="geometry" />
        </mxCell>
        <mxCell id="z1Rl4krFJPg_lUYL_49s-587" value="M0_UC69" style="rounded=0;whiteSpace=wrap;html=1;" vertex="1" parent="1">
          <mxGeometry x="2148" y="780" width="110" height="290" as="geometry" />
        </mxCell>
        <mxCell id="z1Rl4krFJPg_lUYL_49s-589" style="edgeStyle=orthogonalEdgeStyle;rounded=0;orthogonalLoop=1;jettySize=auto;html=1;exitX=0;exitY=0.75;exitDx=0;exitDy=0;entryX=0.996;entryY=0.681;entryDx=0;entryDy=0;entryPerimeter=0;" edge="1" parent="1" source="z1Rl4krFJPg_lUYL_49s-587" target="z1Rl4krFJPg_lUYL_49s-547">
          <mxGeometry relative="1" as="geometry" />
        </mxCell>
        <mxCell id="z1Rl4krFJPg_lUYL_49s-590" style="edgeStyle=orthogonalEdgeStyle;rounded=0;orthogonalLoop=1;jettySize=auto;html=1;exitX=0.25;exitY=0;exitDx=0;exitDy=0;entryX=0.5;entryY=1;entryDx=0;entryDy=0;" edge="1" parent="1" source="z1Rl4krFJPg_lUYL_49s-592" target="z1Rl4krFJPg_lUYL_49s-547">
          <mxGeometry relative="1" as="geometry" />
        </mxCell>
        <mxCell id="z1Rl4krFJPg_lUYL_49s-591" style="edgeStyle=orthogonalEdgeStyle;rounded=0;orthogonalLoop=1;jettySize=auto;html=1;exitX=1;exitY=0.5;exitDx=0;exitDy=0;entryX=0.5;entryY=1;entryDx=0;entryDy=0;" edge="1" parent="1" source="z1Rl4krFJPg_lUYL_49s-592" target="z1Rl4krFJPg_lUYL_49s-587">
          <mxGeometry relative="1" as="geometry" />
        </mxCell>
        <mxCell id="z1Rl4krFJPg_lUYL_49s-592" value="M0_UB77" style="rounded=0;whiteSpace=wrap;html=1;" vertex="1" parent="1">
          <mxGeometry x="1958" y="1080" width="180" height="95" as="geometry" />
        </mxCell>
        <mxCell id="z1Rl4krFJPg_lUYL_49s-593" value="M0_UA32" style="whiteSpace=wrap;html=1;aspect=fixed;" vertex="1" parent="1">
          <mxGeometry x="2053" y="900" width="80" height="80" as="geometry" />
        </mxCell>
        <mxCell id="z1Rl4krFJPg_lUYL_49s-594" value="M0_CHASM01" style="rounded=0;whiteSpace=wrap;html=1;" vertex="1" parent="1">
          <mxGeometry x="2699" y="820" width="160" height="80" as="geometry" />
        </mxCell>
        <mxCell id="z1Rl4krFJPg_lUYL_49s-595" value="M0_CHASM02" style="rounded=0;whiteSpace=wrap;html=1;" vertex="1" parent="1">
          <mxGeometry x="2799" y="925" width="80" height="160" as="geometry" />
        </mxCell>
        <mxCell id="z1Rl4krFJPg_lUYL_49s-596" value="M0_CHASM03" style="rounded=0;whiteSpace=wrap;html=1;" vertex="1" parent="1">
          <mxGeometry x="2719" y="1100" width="160" height="80" as="geometry" />
        </mxCell>
        <mxCell id="z1Rl4krFJPg_lUYL_49s-597" value="M0_SCHASM01" style="whiteSpace=wrap;html=1;aspect=fixed;" vertex="1" parent="1">
          <mxGeometry x="2619" y="1100" width="80" height="80" as="geometry" />
        </mxCell>
        <mxCell id="z1Rl4krFJPg_lUYL_49s-598" value="M0_CHASMBOTTOM" style="rounded=0;whiteSpace=wrap;html=1;" vertex="1" parent="1">
          <mxGeometry x="2809" y="1200" width="160" height="240" as="geometry" />
        </mxCell>
        <mxCell id="z1Rl4krFJPg_lUYL_49s-599" value="M0_CHASMOTHERSIDE" style="rounded=0;whiteSpace=wrap;html=1;" vertex="1" parent="1">
          <mxGeometry x="2929" y="930" width="80" height="245" as="geometry" />
        </mxCell>
        <mxCell id="z1Rl4krFJPg_lUYL_49s-600" value="M0_CHASM04" style="rounded=0;whiteSpace=wrap;html=1;" vertex="1" parent="1">
          <mxGeometry x="2959" y="830" width="160" height="80" as="geometry" />
        </mxCell>
        <mxCell id="z1Rl4krFJPg_lUYL_49s-601" value="M0_SPOREPEARL" style="rounded=0;whiteSpace=wrap;html=1;" vertex="1" parent="1">
          <mxGeometry x="2989" y="725" width="80" height="85" as="geometry" />
        </mxCell>
        <mxCell id="z1Rl4krFJPg_lUYL_49s-602" value="M0_SCHASM02" style="whiteSpace=wrap;html=1;aspect=fixed;" vertex="1" parent="1">
          <mxGeometry x="3179" y="830" width="80" height="80" as="geometry" />
        </mxCell>
        <mxCell id="z1Rl4krFJPg_lUYL_49s-603" value="" style="endArrow=classic;html=1;rounded=0;exitX=1;exitY=0.5;exitDx=0;exitDy=0;entryX=0.55;entryY=0;entryDx=0;entryDy=0;entryPerimeter=0;" edge="1" parent="1" source="z1Rl4krFJPg_lUYL_49s-500" target="z1Rl4krFJPg_lUYL_49s-594">
          <mxGeometry width="50" height="50" relative="1" as="geometry">
            <mxPoint x="2832.4285714285716" y="665" as="sourcePoint" />
            <mxPoint x="2789" y="760" as="targetPoint" />
            <Array as="points">
              <mxPoint x="2789" y="725" />
            </Array>
          </mxGeometry>
        </mxCell>
        <mxCell id="z1Rl4krFJPg_lUYL_49s-604" value="" style="endArrow=classic;html=1;rounded=0;exitX=0.75;exitY=1;exitDx=0;exitDy=0;entryX=0.25;entryY=0;entryDx=0;entryDy=0;" edge="1" parent="1" source="z1Rl4krFJPg_lUYL_49s-594" target="z1Rl4krFJPg_lUYL_49s-595">
          <mxGeometry width="50" height="50" relative="1" as="geometry">
            <mxPoint x="2629" y="1070" as="sourcePoint" />
            <mxPoint x="2679" y="1020" as="targetPoint" />
          </mxGeometry>
        </mxCell>
        <mxCell id="z1Rl4krFJPg_lUYL_49s-605" value="" style="endArrow=classic;html=1;rounded=0;entryX=0.75;entryY=0;entryDx=0;entryDy=0;exitX=0.5;exitY=1;exitDx=0;exitDy=0;" edge="1" parent="1" source="z1Rl4krFJPg_lUYL_49s-595" target="z1Rl4krFJPg_lUYL_49s-596">
          <mxGeometry width="50" height="50" relative="1" as="geometry">
            <mxPoint x="2766.4799999999996" y="1038.48" as="sourcePoint" />
            <mxPoint x="2551.52" y="1066.52" as="targetPoint" />
          </mxGeometry>
        </mxCell>
        <mxCell id="z1Rl4krFJPg_lUYL_49s-606" value="" style="endArrow=classic;html=1;rounded=0;exitX=0;exitY=0.5;exitDx=0;exitDy=0;entryX=1;entryY=0.5;entryDx=0;entryDy=0;" edge="1" parent="1" source="z1Rl4krFJPg_lUYL_49s-596" target="z1Rl4krFJPg_lUYL_49s-597">
          <mxGeometry width="50" height="50" relative="1" as="geometry">
            <mxPoint x="2629" y="1070" as="sourcePoint" />
            <mxPoint x="2679" y="1020" as="targetPoint" />
          </mxGeometry>
        </mxCell>
        <mxCell id="z1Rl4krFJPg_lUYL_49s-607" value="" style="endArrow=classic;html=1;rounded=0;exitX=0.75;exitY=1;exitDx=0;exitDy=0;entryX=0.25;entryY=0;entryDx=0;entryDy=0;" edge="1" parent="1" source="z1Rl4krFJPg_lUYL_49s-596" target="z1Rl4krFJPg_lUYL_49s-598">
          <mxGeometry width="50" height="50" relative="1" as="geometry">
            <mxPoint x="2629" y="1070" as="sourcePoint" />
            <mxPoint x="2679" y="1020" as="targetPoint" />
          </mxGeometry>
        </mxCell>
        <mxCell id="z1Rl4krFJPg_lUYL_49s-608" value="M0_CHASMWATER" style="rounded=0;whiteSpace=wrap;html=1;" vertex="1" parent="1">
          <mxGeometry x="2859" y="1460" width="80" height="160" as="geometry" />
        </mxCell>
        <mxCell id="z1Rl4krFJPg_lUYL_49s-609" value="M0_CHASMTRAINWRECK" style="rounded=0;whiteSpace=wrap;html=1;" vertex="1" parent="1">
          <mxGeometry x="3009" y="1590" width="80" height="80" as="geometry" />
        </mxCell>
        <mxCell id="z1Rl4krFJPg_lUYL_49s-610" value="M0_PS01" style="rounded=0;whiteSpace=wrap;html=1;" vertex="1" parent="1">
          <mxGeometry x="3099" y="1480" width="160" height="80" as="geometry" />
        </mxCell>
        <mxCell id="z1Rl4krFJPg_lUYL_49s-611" value="" style="endArrow=classic;html=1;rounded=0;exitX=0.75;exitY=0;exitDx=0;exitDy=0;entryX=0.5;entryY=1;entryDx=0;entryDy=0;" edge="1" parent="1" source="z1Rl4krFJPg_lUYL_49s-598" target="z1Rl4krFJPg_lUYL_49s-599">
          <mxGeometry width="50" height="50" relative="1" as="geometry">
            <mxPoint x="2629" y="1270" as="sourcePoint" />
            <mxPoint x="2679" y="1220" as="targetPoint" />
          </mxGeometry>
        </mxCell>
        <mxCell id="z1Rl4krFJPg_lUYL_49s-612" value="" style="endArrow=classic;html=1;rounded=0;exitX=0.5;exitY=0;exitDx=0;exitDy=0;entryX=0.25;entryY=1;entryDx=0;entryDy=0;" edge="1" parent="1" source="z1Rl4krFJPg_lUYL_49s-599" target="z1Rl4krFJPg_lUYL_49s-600">
          <mxGeometry width="50" height="50" relative="1" as="geometry">
            <mxPoint x="2629" y="1270" as="sourcePoint" />
            <mxPoint x="2679" y="1220" as="targetPoint" />
          </mxGeometry>
        </mxCell>
        <mxCell id="z1Rl4krFJPg_lUYL_49s-613" value="" style="endArrow=classic;html=1;rounded=0;exitX=1;exitY=0.5;exitDx=0;exitDy=0;entryX=0;entryY=0.5;entryDx=0;entryDy=0;" edge="1" parent="1" source="z1Rl4krFJPg_lUYL_49s-600" target="z1Rl4krFJPg_lUYL_49s-602">
          <mxGeometry width="50" height="50" relative="1" as="geometry">
            <mxPoint x="2629" y="1070" as="sourcePoint" />
            <mxPoint x="2679" y="1020" as="targetPoint" />
          </mxGeometry>
        </mxCell>
        <mxCell id="z1Rl4krFJPg_lUYL_49s-614" value="" style="endArrow=classic;html=1;rounded=0;exitX=0.5;exitY=0;exitDx=0;exitDy=0;entryX=0.25;entryY=1;entryDx=0;entryDy=0;" edge="1" parent="1" source="z1Rl4krFJPg_lUYL_49s-600" target="z1Rl4krFJPg_lUYL_49s-601">
          <mxGeometry width="50" height="50" relative="1" as="geometry">
            <mxPoint x="2629" y="1070" as="sourcePoint" />
            <mxPoint x="2679" y="1020" as="targetPoint" />
          </mxGeometry>
        </mxCell>
        <mxCell id="z1Rl4krFJPg_lUYL_49s-615" value="" style="endArrow=classic;html=1;rounded=0;exitX=0.5;exitY=1;exitDx=0;exitDy=0;entryX=0.5;entryY=0;entryDx=0;entryDy=0;" edge="1" parent="1" source="z1Rl4krFJPg_lUYL_49s-598" target="z1Rl4krFJPg_lUYL_49s-608">
          <mxGeometry width="50" height="50" relative="1" as="geometry">
            <mxPoint x="2629" y="1370" as="sourcePoint" />
            <mxPoint x="2679" y="1320" as="targetPoint" />
          </mxGeometry>
        </mxCell>
        <mxCell id="z1Rl4krFJPg_lUYL_49s-616" value="" style="endArrow=classic;html=1;rounded=0;exitX=1.025;exitY=0.906;exitDx=0;exitDy=0;exitPerimeter=0;entryX=0;entryY=0.5;entryDx=0;entryDy=0;" edge="1" parent="1" source="z1Rl4krFJPg_lUYL_49s-608" target="z1Rl4krFJPg_lUYL_49s-609">
          <mxGeometry width="50" height="50" relative="1" as="geometry">
            <mxPoint x="2629" y="1370" as="sourcePoint" />
            <mxPoint x="2679" y="1320" as="targetPoint" />
          </mxGeometry>
        </mxCell>
        <mxCell id="z1Rl4krFJPg_lUYL_49s-617" value="" style="endArrow=classic;html=1;rounded=0;exitX=0.5;exitY=0;exitDx=0;exitDy=0;entryX=0.25;entryY=1;entryDx=0;entryDy=0;" edge="1" parent="1" source="z1Rl4krFJPg_lUYL_49s-609" target="z1Rl4krFJPg_lUYL_49s-610">
          <mxGeometry width="50" height="50" relative="1" as="geometry">
            <mxPoint x="2629" y="1370" as="sourcePoint" />
            <mxPoint x="2679" y="1320" as="targetPoint" />
          </mxGeometry>
        </mxCell>
        <mxCell id="z1Rl4krFJPg_lUYL_49s-618" value="" style="endArrow=classic;html=1;rounded=0;entryX=0;entryY=0.5;entryDx=0;entryDy=0;exitX=1;exitY=0.5;exitDx=0;exitDy=0;" edge="1" parent="1" source="z1Rl4krFJPg_lUYL_49s-610" target="z1Rl4krFJPg_lUYL_49s-504">
          <mxGeometry width="50" height="50" relative="1" as="geometry">
            <mxPoint x="2629" y="1370" as="sourcePoint" />
            <mxPoint x="2679" y="1320" as="targetPoint" />
          </mxGeometry>
        </mxCell>
        <mxCell id="z1Rl4krFJPg_lUYL_49s-627" style="edgeStyle=none;curved=1;rounded=0;orthogonalLoop=1;jettySize=auto;html=1;exitX=1;exitY=0.5;exitDx=0;exitDy=0;entryX=0;entryY=0.5;entryDx=0;entryDy=0;fontSize=12;startSize=8;endSize=8;" edge="1" parent="1" source="z1Rl4krFJPg_lUYL_49s-625" target="z1Rl4krFJPg_lUYL_49s-492">
          <mxGeometry relative="1" as="geometry" />
        </mxCell>
        <mxCell id="z1Rl4krFJPg_lUYL_49s-625" value="M0_FactoryTop2" style="rounded=0;whiteSpace=wrap;html=1;" vertex="1" parent="1">
          <mxGeometry x="1828" y="110" width="172" height="80" as="geometry" />
        </mxCell>
        <mxCell id="z1Rl4krFJPg_lUYL_49s-628" style="edgeStyle=none;curved=1;rounded=0;orthogonalLoop=1;jettySize=auto;html=1;exitX=0.5;exitY=0;exitDx=0;exitDy=0;fontSize=12;startSize=8;endSize=8;" edge="1" parent="1" source="z1Rl4krFJPg_lUYL_49s-581" target="z1Rl4krFJPg_lUYL_49s-581">
          <mxGeometry relative="1" as="geometry" />
        </mxCell>
        <mxCell id="z1Rl4krFJPg_lUYL_49s-629" value="M0_FB93" style="rounded=0;whiteSpace=wrap;html=1;" vertex="1" parent="1">
          <mxGeometry x="1387" y="280" width="82" height="150" as="geometry" />
        </mxCell>
        <mxCell id="z1Rl4krFJPg_lUYL_49s-638" style="edgeStyle=none;curved=1;rounded=0;orthogonalLoop=1;jettySize=auto;html=1;exitX=0;exitY=0.25;exitDx=0;exitDy=0;entryX=1;entryY=0.5;entryDx=0;entryDy=0;fontSize=12;startSize=8;endSize=8;" edge="1" parent="1" source="z1Rl4krFJPg_lUYL_49s-636" target="z1Rl4krFJPg_lUYL_49s-486">
          <mxGeometry relative="1" as="geometry" />
        </mxCell>
        <mxCell id="z1Rl4krFJPg_lUYL_49s-652" style="edgeStyle=none;curved=1;rounded=0;orthogonalLoop=1;jettySize=auto;html=1;exitX=0.5;exitY=0;exitDx=0;exitDy=0;entryX=0.25;entryY=1;entryDx=0;entryDy=0;fontSize=12;startSize=8;endSize=8;" edge="1" parent="1" source="z1Rl4krFJPg_lUYL_49s-636" target="z1Rl4krFJPg_lUYL_49s-489">
          <mxGeometry relative="1" as="geometry" />
        </mxCell>
        <mxCell id="z1Rl4krFJPg_lUYL_49s-636" value="M0_FA25" style="rounded=0;whiteSpace=wrap;html=1;" vertex="1" parent="1">
          <mxGeometry x="1518" y="250" width="80" height="80" as="geometry" />
        </mxCell>
        <mxCell id="z1Rl4krFJPg_lUYL_49s-639" style="edgeStyle=none;curved=1;rounded=0;orthogonalLoop=1;jettySize=auto;html=1;exitX=0.75;exitY=1;exitDx=0;exitDy=0;fontSize=12;startSize=8;endSize=8;" edge="1" parent="1" source="z1Rl4krFJPg_lUYL_49s-489" target="z1Rl4krFJPg_lUYL_49s-489">
          <mxGeometry relative="1" as="geometry" />
        </mxCell>
        <mxCell id="z1Rl4krFJPg_lUYL_49s-642" value="M0_FB87" style="rounded=0;whiteSpace=wrap;html=1;" vertex="1" parent="1">
          <mxGeometry x="1918" y="540" width="160" height="80" as="geometry" />
        </mxCell>
        <mxCell id="z1Rl4krFJPg_lUYL_49s-645" style="edgeStyle=none;curved=1;rounded=0;orthogonalLoop=1;jettySize=auto;html=1;exitX=0.5;exitY=1;exitDx=0;exitDy=0;entryX=1;entryY=0.5;entryDx=0;entryDy=0;fontSize=12;startSize=8;endSize=8;" edge="1" parent="1" source="z1Rl4krFJPg_lUYL_49s-644" target="z1Rl4krFJPg_lUYL_49s-642">
          <mxGeometry relative="1" as="geometry" />
        </mxCell>
        <mxCell id="z1Rl4krFJPg_lUYL_49s-644" value="M0_FC84" style="rounded=0;whiteSpace=wrap;html=1;" vertex="1" parent="1">
          <mxGeometry x="2043" y="280" width="90" height="242.5" as="geometry" />
        </mxCell>
        <mxCell id="z1Rl4krFJPg_lUYL_49s-658" style="edgeStyle=none;curved=1;rounded=0;orthogonalLoop=1;jettySize=auto;html=1;exitX=0.75;exitY=1;exitDx=0;exitDy=0;entryX=0.5;entryY=0;entryDx=0;entryDy=0;fontSize=12;startSize=8;endSize=8;" edge="1" parent="1" source="z1Rl4krFJPg_lUYL_49s-494" target="z1Rl4krFJPg_lUYL_49s-657">
          <mxGeometry relative="1" as="geometry" />
        </mxCell>
        <mxCell id="z1Rl4krFJPg_lUYL_49s-494" value="&lt;div&gt;M0_FB05&lt;/div&gt;&lt;div&gt;(RBOR&#39;s second concept room)&lt;/div&gt;" style="rounded=0;whiteSpace=wrap;html=1;" vertex="1" parent="1">
          <mxGeometry x="2250" y="490" width="160" height="80" as="geometry" />
        </mxCell>
        <mxCell id="z1Rl4krFJPg_lUYL_49s-648" style="edgeStyle=none;curved=1;rounded=0;orthogonalLoop=1;jettySize=auto;html=1;exitX=1;exitY=0.5;exitDx=0;exitDy=0;entryX=0;entryY=0.5;entryDx=0;entryDy=0;fontSize=12;startSize=8;endSize=8;" edge="1" parent="1" source="z1Rl4krFJPg_lUYL_49s-647" target="z1Rl4krFJPg_lUYL_49s-494">
          <mxGeometry relative="1" as="geometry" />
        </mxCell>
        <mxCell id="z1Rl4krFJPg_lUYL_49s-649" style="edgeStyle=none;curved=1;rounded=0;orthogonalLoop=1;jettySize=auto;html=1;exitX=0;exitY=0.5;exitDx=0;exitDy=0;entryX=1;entryY=0.75;entryDx=0;entryDy=0;fontSize=12;startSize=8;endSize=8;" edge="1" parent="1" source="z1Rl4krFJPg_lUYL_49s-647" target="z1Rl4krFJPg_lUYL_49s-415">
          <mxGeometry relative="1" as="geometry" />
        </mxCell>
        <mxCell id="z1Rl4krFJPg_lUYL_49s-647" value="M0_FA27" style="whiteSpace=wrap;html=1;aspect=fixed;" vertex="1" parent="1">
          <mxGeometry x="2133" y="520" width="80" height="80" as="geometry" />
        </mxCell>
        <mxCell id="z1Rl4krFJPg_lUYL_49s-655" style="edgeStyle=none;curved=1;rounded=0;orthogonalLoop=1;jettySize=auto;html=1;exitX=1;exitY=0.25;exitDx=0;exitDy=0;entryX=0;entryY=0.5;entryDx=0;entryDy=0;fontSize=12;startSize=8;endSize=8;" edge="1" parent="1" source="z1Rl4krFJPg_lUYL_49s-650" target="z1Rl4krFJPg_lUYL_49s-654">
          <mxGeometry relative="1" as="geometry" />
        </mxCell>
        <mxCell id="z1Rl4krFJPg_lUYL_49s-650" value="M0_FB65" style="rounded=0;whiteSpace=wrap;html=1;" vertex="1" parent="1">
          <mxGeometry x="1666" y="250" width="82" height="170" as="geometry" />
        </mxCell>
        <mxCell id="z1Rl4krFJPg_lUYL_49s-656" style="edgeStyle=none;curved=1;rounded=0;orthogonalLoop=1;jettySize=auto;html=1;exitX=1;exitY=0.5;exitDx=0;exitDy=0;entryX=0;entryY=0.5;entryDx=0;entryDy=0;fontSize=12;startSize=8;endSize=8;" edge="1" parent="1" source="z1Rl4krFJPg_lUYL_49s-654" target="z1Rl4krFJPg_lUYL_49s-496">
          <mxGeometry relative="1" as="geometry" />
        </mxCell>
        <mxCell id="z1Rl4krFJPg_lUYL_49s-654" value="M0_FA95" style="whiteSpace=wrap;html=1;aspect=fixed;" vertex="1" parent="1">
          <mxGeometry x="1788" y="230" width="80" height="80" as="geometry" />
        </mxCell>
        <mxCell id="z1Rl4krFJPg_lUYL_49s-657" value="&lt;div&gt;&lt;span style=&quot;background-color: initial;&quot;&gt;M0_FB39&lt;/span&gt;&lt;br&gt;&lt;/div&gt;" style="rounded=0;whiteSpace=wrap;html=1;" vertex="1" parent="1">
          <mxGeometry x="2328" y="590" width="82" height="150" as="geometry" />
        </mxCell>
        <mxCell id="z1Rl4krFJPg_lUYL_49s-515" value="M0_FFA01&lt;div&gt;(my concept room with the two tanks)&lt;/div&gt;" style="whiteSpace=wrap;html=1;aspect=fixed;" vertex="1" parent="1">
          <mxGeometry x="2450" y="670" width="80" height="80" as="geometry" />
        </mxCell>
        <mxCell id="z1Rl4krFJPg_lUYL_49s-659" style="edgeStyle=none;curved=1;rounded=0;orthogonalLoop=1;jettySize=auto;html=1;exitX=1;exitY=0.5;exitDx=0;exitDy=0;entryX=0;entryY=0.5;entryDx=0;entryDy=0;fontSize=12;startSize=8;endSize=8;" edge="1" parent="1" source="z1Rl4krFJPg_lUYL_49s-657" target="z1Rl4krFJPg_lUYL_49s-515">
          <mxGeometry relative="1" as="geometry" />
        </mxCell>
      </root>
    </mxGraphModel>
  </diagram>
</mxfile>
